<svg xmlns="http://www.w3.org/2000/svg" xmlns:xlink="http://www.w3.org/1999/xlink" fill="none" stroke="none" stroke-linecap="square" stroke-miterlimit="10" version="1.1" viewBox="0 0 2048 2048"><clipPath id="p.0"><path d="m0 0l2048.0 0l0 2048.0l-2048.0 0l0 -2048.0z" clip-rule="nonzero"/></clipPath><g clip-path="url(#p.0)"><path fill="#000" fill-opacity="0" fill-rule="evenodd" d="m0 0l2048.0 0l0 2048.0l-2048.0 0z"/><path fill="#2e4057" fill-rule="evenodd" d="m0 1024.0l0 0c0 -565.53955 458.46042 -1024.0 1024.0 -1024.0l0 0c271.58167 0 532.04004 107.88541 724.0774 299.92267c192.03723 192.03723 299.9226 452.49567 299.9226 724.07733l0 0c0 565.53955 -458.46045 1024.0 -1024.0 1024.0l0 0c-565.53955 0 -1024.0 -458.46045 -1024.0 -1024.0z"/><path fill="#fe4a49" fill-rule="evenodd" d="m1024.0476 1024.0049l-602.92914 -348.5512l602.92914 -348.55118z"/><path fill-rule="evenodd" stroke="#fe4a49" stroke-linecap="butt" stroke-linejoin="round" stroke-width="4" d="m1024.0476 1024.0049l-602.92914 -348.5512l602.92914 -348.55118z"/><path fill="#fe4a49" fill-rule="evenodd" d="m1023.9881 326.90146l602.92914 348.55118l-602.92914 348.55115z"/><path fill-rule="evenodd" stroke="#fe4a49" stroke-linecap="butt" stroke-linejoin="round" stroke-width="4" d="m1023.9881 326.90146l602.92914 348.55118l-602.92914 348.55115z"/><path fill="#2ab7ca" fill-rule="evenodd" d="m1024.0161 1721.094l-602.89764 -348.55127l602.89764 -348.55115z"/><path fill-rule="evenodd" stroke="#2ab7ca" stroke-linecap="butt" stroke-linejoin="round" stroke-width="4" d="m1024.0161 1721.094l-602.89764 -348.55127l602.89764 -348.55115z"/><path fill="#2ab7ca" fill-rule="evenodd" d="m1024.0072 1023.99774l602.8977 348.5512l-602.8977 348.55115z"/><path fill-rule="evenodd" stroke="#2ab7ca" stroke-linecap="butt" stroke-linejoin="round" stroke-width="4" d="m1024.0072 1023.99774l602.8977 348.5512l-602.8977 348.55115z"/><path fill="#fed766" fill-rule="evenodd" d="m421.0828 675.4496l602.9292 348.55115l-602.9292 348.55127z"/><path fill-rule="evenodd" stroke="#fed766" stroke-linecap="butt" stroke-linejoin="round" stroke-width="4" d="m421.0828 675.4496l602.9292 348.55115l-602.9292 348.55127z"/></g></svg>