<svg xmlns="http://www.w3.org/2000/svg" xmlns:xlink="http://www.w3.org/1999/xlink" fill="none" stroke="none" stroke-linecap="square" stroke-miterlimit="10" version="1.1" viewBox="0 0 2048 2048"><clipPath id="p.0"><path d="m0 0l2048.0 0l0 2048.0l-2048.0 0l0 -2048.0z" clip-rule="nonzero"/></clipPath><g clip-path="url(#p.0)"><path fill="#000" fill-opacity="0" fill-rule="evenodd" d="m0 0l2048.0 0l0 2048.0l-2048.0 0z"/><path fill="#fe4a49" fill-rule="evenodd" d="m1024.074 1024.008l-885.6693 -512.0l885.6693 -512.0z"/><path fill-rule="evenodd" stroke="#fe4a49" stroke-linecap="butt" stroke-linejoin="round" stroke-width="4" d="m1024.074 1024.008l-885.6693 -512.0l885.6693 -512.0z"/><path fill="#fe4a49" fill-rule="evenodd" d="m1023.9819 0.0020535432l885.66925 512.0l-885.66925 512.0z"/><path fill-rule="evenodd" stroke="#fe4a49" stroke-linecap="butt" stroke-linejoin="round" stroke-width="4" d="m1023.9819 0.0020535432l885.66925 512.0l-885.66925 512.0z"/><path fill="#2ab7ca" fill-rule="evenodd" d="m1024.011 2047.993l-885.6063 -512.0l885.6063 -512.0z"/><path fill-rule="evenodd" stroke="#2ab7ca" stroke-linecap="butt" stroke-linejoin="round" stroke-width="4" d="m1024.011 2047.993l-885.6063 -512.0l885.6063 -512.0z"/><path fill="#2ab7ca" fill-rule="evenodd" d="m1024.0267 1023.99756l885.6062 512.0l-885.6062 512.0z"/><path fill-rule="evenodd" stroke="#2ab7ca" stroke-linecap="butt" stroke-linejoin="round" stroke-width="4" d="m1024.0267 1023.99756l885.6062 512.0l-885.6062 512.0z"/><path fill="#fed766" fill-rule="evenodd" d="m138.34995 511.99982l885.6693 512.0l-885.6693 511.99994z"/><path fill-rule="evenodd" stroke="#fed766" stroke-linecap="butt" stroke-linejoin="round" stroke-width="4" d="m138.34995 511.99982l885.6693 512.0l-885.6693 511.99994z"/></g></svg>