<svg xmlns="http://www.w3.org/2000/svg" xmlns:xlink="http://www.w3.org/1999/xlink" fill="none" stroke="none" stroke-linecap="square" stroke-miterlimit="10" version="1.1" viewBox="0 0 1600 900"><clipPath id="p.0"><path d="m0 0l1600.0 0l0 900.0l-1600.0 0l0 -900.0z" clip-rule="nonzero"/></clipPath><g clip-path="url(#p.0)"><path fill="#000" fill-opacity="0" fill-rule="evenodd" d="m0 0l1600.0 0l0 900.0l-1600.0 0z"/><path fill="#2ab7ca" fill-rule="evenodd" d="m0 0l1600.0 0c0.003540039 0 0.006958008 0.0014047578 0.009399414 0.003905243c0.0025634766 0.002500485 0.00390625 0.00589187 0.00390625 0.00942809l-0.013305664 449.98666l0 0c0 248.52814 -201.4718 450.0 -450.0 450.0l-700.0 0c-248.52814 0 -450.0 -201.47186 -450.0 -450.0l0 -450.0l0 1.6328624E-18c0 -0.0073637967 0.0059695365 -0.013333334 0.013333334 -0.013333334z"/><path fill="#fed766" fill-rule="evenodd" d="m0 0l1600.0 0c0.003540039 0 0.006958008 0.0014047578 0.009399414 0.003905243c0.0025634766 0.002500485 0.00390625 0.00589187 0.00390625 0.00942809l-0.013305664 300.14413l0 0c0 165.7724 -134.38513 300.15747 -300.15747 300.15747l-999.68506 0c-165.77238 0 -300.15747 -134.38507 -300.15747 -300.15747l0 -300.15747l0 1.6328624E-18c0 -0.0073637967 0.0059695365 -0.013333334 0.013333334 -0.013333334z"/><path fill="#fe4a49" fill-rule="evenodd" d="m0 0.002624672l1600.0 0c0.003540039 0 0.006958008 0.0014047581 0.009399414 0.0039052428c0.0025634766 0.0025004852 0.00390625 0.0058918702 0.00390625 0.009428091l-0.013305664 150.0654l0 0c0 82.8862 -67.192505 150.07874 -150.07874 150.07874l-1299.8425 0c-82.88619 0 -150.07874 -67.192535 -150.07874 -150.07874l0 -150.07874l0 0c0 -0.0073637967 0.0059695365 -0.013333334 0.013333334 -0.013333334z"/></g></svg>